<?xml version="1.0" standalone="no"?><!DOCTYPE svg PUBLIC "-//W3C//DTD SVG 1.1//EN" "http://www.w3.org/Graphics/SVG/1.1/DTD/svg11.dtd"><svg t="1746697800349" class="icon" viewBox="0 0 1024 1024" version="1.1" xmlns="http://www.w3.org/2000/svg" p-id="10551" xmlns:xlink="http://www.w3.org/1999/xlink" width="200" height="200"><path d="M944 234.88a79.808 79.808 0 0 0-67.2 123.104l-172.096 261.76a101.76 101.76 0 0 0-54.336-0.384L440.576 252.8a112.32 112.32 0 1 0-148.384 7.872L75.84 803.008a79.68 79.68 0 1 0 59.968 22.4l215.84-541.024c3.36 0.32 6.56 1.024 9.984 1.024a112.768 112.768 0 0 0 22.592-2.304l210.976 368.64a112.064 112.064 0 1 0 164.352 1.12l170.528-259.392A79.904 79.904 0 1 0 944 234.88z" fill="#333333" p-id="10552"></path></svg>